<?xml version="1.0" standalone="no"?>
<!DOCTYPE svg PUBLIC "-//W3C//DTD SVG 20010904//EN"
 "http://www.w3.org/TR/2001/REC-SVG-20010904/DTD/svg10.dtd">
<svg version="1.0" xmlns="http://www.w3.org/2000/svg"
 width="700.000000pt" height="700.000000pt" viewBox="0 0 700.000000 700.000000"
 preserveAspectRatio="xMidYMid meet">
<metadata>
Created by potrace 1.14, written by Peter Selinger 2001-2017
</metadata>
<g transform="translate(0.000000,700.000000) scale(0.100000,-0.100000)"
fill="#000000" stroke="none">
<path d="M2 5343 c0 -912 3 -1642 5 -1623 20 210 27 270 44 370 118 697 437
1318 944 1839 536 551 1184 896 1915 1020 100 17 160 24 370 44 19 2 -711 5
-1622 5 l-1658 2 2 -1657z"/>
<path d="M3720 6993 c19 -1 84 -8 145 -13 566 -55 1147 -271 1620 -603 304
-213 612 -514 842 -824 313 -421 533 -938 622 -1463 17 -100 33 -234 44 -375
2 -22 4 708 5 1623 l2 1662 -1657 -2 c-912 0 -1642 -3 -1623 -5z"/>
<path d="M3335 6734 c-367 -28 -650 -85 -942 -189 -280 -100 -658 -313 -893
-501 -121 -98 -326 -300 -435 -429 -810 -960 -1007 -2225 -523 -3360 129 -301
313 -597 530 -848 l68 -79 0 -89 0 -89 91 0 91 0 67 -58 c469 -412 1058 -679
1692 -767 179 -25 552 -30 739 -11 607 65 1148 277 1626 637 129 98 144 120
34 51 -355 -222 -731 -357 -1174 -419 -188 -27 -574 -24 -774 5 -458 67 -901
242 -1248 493 l-89 64 58 3 57 3 0 69 c0 39 2 70 5 70 3 0 30 -18 60 -41 82
-62 257 -165 390 -229 495 -239 1080 -322 1622 -230 149 26 353 79 480 126
111 41 329 143 422 197 l62 37 255 0 254 0 0 200 0 201 81 92 c86 97 173 209
228 292 l33 50 -42 -50 c-59 -69 -279 -285 -291 -285 -5 0 -9 41 -9 91 l0 91
89 94 c300 317 484 683 566 1129 26 138 32 488 11 640 -64 458 -265 878 -573
1196 l-93 96 0 91 c0 55 4 92 10 92 17 0 239 -220 307 -305 36 -44 95 -126
131 -181 37 -56 73 -110 80 -120 7 -11 -17 40 -52 111 -105 210 -259 433 -413
597 l-63 67 0 151 c0 82 3 150 7 150 4 0 55 -46 112 -102 110 -108 98 -87 -46
83 l-73 86 0 87 0 86 -86 0 -87 0 -86 73 c-507 431 -1110 693 -1766 767 -99
11 -421 20 -500 14z m999 -389 c225 -30 426 -80 641 -159 129 -48 396 -180
505 -250 l85 -55 -231 -1 -232 0 -77 36 c-183 83 -457 161 -710 201 -158 25
-593 25 -755 0 -501 -78 -902 -250 -1300 -558 -114 -88 -330 -302 -424 -419
-385 -483 -596 -1092 -596 -1722 l0 -88 -50 0 -50 0 0 -282 c0 -155 -2 -279
-5 -276 -9 8 -52 243 -67 358 -21 172 -16 564 11 737 97 633 375 1186 826
1639 469 472 1099 773 1765 843 58 6 121 13 140 15 71 8 418 -4 524 -19z m289
-652 l67 -6 0 -72 0 -71 -72 9 c-123 15 -477 2 -603 -22 -696 -133 -1250 -552
-1555 -1176 -142 -290 -220 -622 -220 -937 l0 -88 -75 0 -74 0 -7 36 c-17 91
21 410 72 612 143 562 520 1076 1016 1384 265 164 610 285 933 327 84 10 422
13 518 4z m1067 -2178 l0 -2185 -410 0 -410 0 0 2185 0 2185 410 0 410 0 0
-2185z m-1000 1491 l0 -43 -57 -7 c-326 -38 -665 -199 -915 -434 l-66 -63 -62
3 -61 3 66 72 c112 122 293 256 461 341 164 82 460 167 602 171 31 1 32 0 32
-43z m1259 -360 c284 -239 466 -547 541 -914 113 -556 -32 -1099 -408 -1530
-51 -58 -202 -192 -216 -192 -3 0 -6 26 -6 58 0 58 0 59 51 102 70 59 185 193
251 292 326 490 366 1094 106 1612 -91 182 -234 373 -357 476 -51 43 -51 44
-51 102 0 32 3 58 6 58 3 0 40 -29 83 -64z m-2029 -1836 l0 -1480 -410 0 -410
0 0 1480 0 1480 410 0 410 0 0 -1480z m-1790 -570 l0 -910 -410 0 -410 0 0
910 0 910 410 0 410 0 0 -910z m323 238 c99 -204 219 -377 375 -539 l93 -97
-3 -98 -3 -97 -109 104 c-182 174 -311 340 -437 567 l-59 107 0 215 0 215 44
-132 c25 -72 69 -182 99 -245z m1868 -641 c109 -37 216 -62 312 -73 l57 -7 0
-43 c0 -50 3 -49 -105 -34 -117 17 -270 58 -381 101 l-104 41 0 54 0 54 58
-29 c32 -16 105 -45 163 -64z m64 -572 c83 0 185 3 228 7 l77 8 0 -64 c0 -59
2 -65 23 -68 12 -2 -18 -8 -68 -14 -180 -18 -627 -5 -567 17 19 7 22 15 22 68
l0 60 68 -7 c37 -4 135 -7 217 -7z"/>
<path d="M6990 3268 c0 -193 -73 -574 -160 -843 -179 -547 -473 -1013 -906
-1435 -274 -266 -541 -458 -859 -617 -430 -216 -831 -324 -1350 -366 -22 -2
708 -4 1623 -5 l1662 -2 0 1660 c0 913 -2 1660 -5 1660 -3 0 -5 -24 -5 -52z"/>
<path d="M2 1658 l-2 -1658 1663 2 c914 1 1644 3 1622 5 -524 42 -931 153
-1365 373 -483 245 -932 634 -1272 1100 -296 408 -511 920 -597 1430 -17 100
-24 160 -44 370 -2 19 -5 -711 -5 -1622z"/>
</g>
</svg>
