<?xml version="1.0" standalone="no"?>
<!DOCTYPE svg PUBLIC "-//W3C//DTD SVG 20010904//EN"
 "http://www.w3.org/TR/2001/REC-SVG-20010904/DTD/svg10.dtd">
<svg version="1.0" xmlns="http://www.w3.org/2000/svg"
 width="700.000000pt" height="700.000000pt" viewBox="0 0 700.000000 700.000000"
 preserveAspectRatio="xMidYMid meet">
<metadata>
Created by potrace 1.14, written by Peter Selinger 2001-2017
</metadata>
<g transform="translate(0.000000,700.000000) scale(0.100000,-0.100000)"
fill="#000000" stroke="none">
<path d="M2 5343 c0 -912 3 -1642 5 -1623 20 210 27 270 44 370 118 697 437
1318 944 1839 536 551 1184 896 1915 1020 100 17 160 24 370 44 19 2 -711 5
-1622 5 l-1658 2 2 -1657z"/>
<path d="M3720 6993 c19 -1 84 -8 145 -13 566 -55 1147 -271 1620 -603 171
-120 294 -225 476 -406 225 -226 376 -411 518 -638 l51 -83 -293 0 -292 0
-105 106 c-207 208 -435 372 -705 504 -305 150 -565 226 -905 266 -175 20
-515 15 -680 -11 -591 -91 -1101 -346 -1511 -755 -220 -218 -371 -428 -508
-700 -167 -335 -255 -656 -281 -1036 l-12 -159 -86 -87 c-48 -49 -91 -88 -96
-88 -16 0 1 432 24 582 94 624 376 1182 825 1634 434 437 985 718 1615 823
697 117 1426 -39 2015 -431 167 -111 270 -194 425 -343 81 -78 111 -103 85
-70 -395 503 -908 870 -1502 1075 -351 122 -666 174 -1043 173 -438 0 -808
-69 -1200 -225 -738 -293 -1341 -866 -1705 -1620 -320 -665 -397 -1395 -223
-2126 l32 -133 -109 -109 c-60 -61 -113 -110 -116 -110 -9 0 -63 189 -94 325
-30 131 -62 342 -74 480 -5 60 -9 -563 -10 -1557 l-1 -1658 1658 2 c911 0
1641 3 1622 5 -210 20 -270 27 -370 44 -526 89 -1040 308 -1466 624 -357 265
-698 632 -922 991 l-50 81 61 7 c43 4 87 18 142 45 44 22 80 39 81 38 242
-371 457 -612 764 -855 452 -356 1022 -591 1610 -664 139 -17 602 -17 740 0
588 74 1114 285 1576 633 130 98 144 120 32 50 -340 -214 -709 -349 -1128
-412 -118 -18 -191 -22 -395 -23 -334 -1 -533 25 -822 108 -252 73 -515 190
-725 323 -249 158 -533 413 -718 643 -152 191 -301 433 -387 631 l-35 82 68
68 c38 38 71 69 74 69 3 0 27 -52 54 -115 134 -316 335 -606 602 -865 674
-655 1637 -906 2559 -669 347 90 717 276 1005 506 178 142 395 376 522 563
l50 75 -43 -50 c-410 -472 -933 -743 -1558 -805 -643 -64 -1337 180 -1810 635
-362 348 -592 795 -677 1314 l-17 103 27 26 26 26 53 -52 c51 -50 55 -58 66
-125 106 -611 460 -1139 987 -1472 616 -390 1415 -430 2079 -105 621 303 1053
874 1175 1553 11 61 20 123 20 138 0 25 4 28 60 37 163 29 284 140 325 297 12
47 15 122 15 364 0 167 2 302 4 300 7 -7 46 -278 55 -384 5 -60 9 563 10 1558
l1 1657 -1657 -2 c-912 0 -1642 -3 -1623 -5z m967 -1308 c349 -46 695 -176
993 -374 l85 -56 -124 -3 -125 -3 -160 80 c-242 121 -476 192 -730 222 -146
17 -473 7 -611 -20 -230 -44 -414 -106 -610 -206 -446 -229 -812 -627 -1001
-1090 -18 -44 -37 -81 -43 -83 -5 -2 -22 3 -38 12 -16 8 -45 17 -65 21 l-37 7
15 42 c37 96 157 329 221 426 102 154 181 250 317 385 355 353 797 569 1306
640 135 18 462 18 607 0z m1941 -646 c62 -35 105 -96 121 -170 14 -66 15
-1226 1 -1300 -21 -109 -97 -180 -201 -187 -78 -6 -136 16 -187 72 -22 24 -45
61 -51 82 -7 25 -11 176 -11 404 l0 365 -1167 -1167 c-911 -911 -1178 -1172
-1213 -1187 -55 -25 -152 -27 -206 -5 -29 11 -245 221 -802 777 l-762 762
-758 -757 c-512 -511 -771 -763 -799 -777 -56 -28 -149 -28 -202 -2 -96 49
-148 159 -121 258 12 45 63 99 869 906 661 662 867 863 905 882 64 32 151 34
216 4 35 -15 218 -193 800 -774 l755 -755 1075 1075 1075 1075 -364 0 c-257 0
-376 4 -405 12 -54 16 -128 90 -144 144 -33 111 13 225 110 273 43 21 49 21
728 21 l685 0 53 -31z m-1710 14 c-2 -5 -10 -25 -18 -45 l-14 -38 -71 0 c-431
0 -900 -215 -1189 -545 -251 -288 -405 -685 -406 -1050 l0 -70 -46 47 -45 47
6 68 c33 368 135 643 345 928 127 172 254 289 435 402 219 137 487 227 746
252 112 11 262 13 257 4z m1600 -1858 c7 -6 -19 -159 -45 -260 -79 -317 -276
-646 -504 -843 -455 -394 -1055 -525 -1632 -357 -91 26 -257 93 -257 104 0 3
16 19 35 34 l35 28 88 -34 c498 -197 1040 -138 1489 160 370 246 628 656 694
1101 l13 84 40 -6 c22 -4 42 -9 44 -11z"/>
<path d="M6990 3268 c0 -70 -16 -205 -41 -356 -87 -522 -308 -1043 -622 -1465
-230 -310 -538 -611 -842 -824 -473 -332 -1054 -548 -1620 -603 -61 -5 -126
-12 -145 -13 -19 -2 711 -5 1623 -5 l1657 -2 0 1660 c0 913 -2 1660 -5 1660
-3 0 -5 -24 -5 -52z"/>
</g>
</svg>
