<svg width="12" height="11" viewBox="0 0 12 11" fill="none" xmlns="http://www.w3.org/2000/svg">
<path d="M0 5.0409C0.110314 4.58962 0.190542 4.18848 0.300856 3.78734C0.320913 3.7372 0.451285 3.67702 0.531513 3.67702C1.29368 3.667 2.04582 3.67702 2.80799 3.67702C3.68047 3.67702 4.54292 3.667 5.4154 3.67702C5.74634 3.68705 6.00708 3.58677 6.21768 3.316C6.58874 2.85469 6.69905 2.85469 7.08013 3.30597C7.30076 3.57674 7.55148 3.68705 7.90247 3.67702C8.77496 3.65697 9.65746 3.67702 10.5299 3.667C10.6904 3.667 10.7807 3.70711 10.8107 3.86757C10.891 4.23862 10.9712 4.60968 11.0615 5.03087C10.9311 5.03087 10.8408 5.03087 10.7506 5.03087C9.52709 5.03087 8.31364 5.02085 7.09016 5.0409C6.82942 5.0409 6.64891 4.96068 6.48845 4.7601C6.1174 4.28876 5.977 4.15839 5.49563 4.73002C5.29506 4.9707 5.07443 5.0409 4.7836 5.03087C3.30941 5.02085 1.82519 5.02085 0.350998 5.02085C0.27077 5.0409 0.180513 5.0409 0 5.0409Z" fill="black"/>
<path d="M0.0800781 6.52558C0.250563 6.52558 0.350846 6.52558 0.451131 6.52558C1.46401 6.52558 2.46686 6.51555 3.47974 6.52558C3.79063 6.52558 4.05137 6.45538 4.24191 6.18461C4.29206 6.11441 4.35222 6.06427 4.4124 5.99407C4.62299 5.76341 4.81354 5.74336 4.99405 5.99407C5.29491 6.43532 5.67599 6.53561 6.18744 6.52558C7.67167 6.49549 9.15588 6.51555 10.6401 6.51555C10.7304 6.51555 10.8206 6.51555 11.0011 6.51555C10.8407 6.97686 10.7003 7.39806 10.5398 7.80923C10.5198 7.84934 10.4195 7.87943 10.3493 7.87943C8.55417 7.87943 6.75907 7.88946 4.96396 7.87943C4.84362 7.87943 4.71325 7.7992 4.623 7.71897C4.49262 7.60866 4.39234 7.45823 4.272 7.33789C4.12157 7.18746 3.95109 7.17743 3.79063 7.32786C3.7806 7.33789 3.7806 7.33789 3.77057 7.34792C3.44966 7.87943 2.95826 7.9396 2.38664 7.90952C1.85513 7.8694 1.32361 7.88946 0.782074 7.90952C0.61159 7.90952 0.521332 7.84934 0.47119 7.69892C0.350847 7.31783 0.230506 6.94678 0.0800781 6.52558Z" fill="black"/>
<path d="M1.14453 2.20271C3.24049 -0.685505 7.72324 -0.775762 9.91948 2.18265C9.52837 2.18265 9.14729 2.22277 8.77623 2.16259C8.61577 2.14254 8.47538 1.94197 8.35503 1.80157C8.00404 1.42048 7.90375 1.40043 7.57281 1.79154C7.31207 2.09239 7.03127 2.21274 6.6201 2.21274C4.90522 2.19268 3.18032 2.20271 1.46544 2.20271C1.36516 2.20271 1.26487 2.20271 1.14453 2.20271Z" fill="black"/>
<path d="M1.52539 9.24251C1.85633 9.23249 2.00676 8.9918 2.18727 8.79123C2.46807 8.47032 2.63856 8.45026 2.88927 8.79123C3.15001 9.16229 3.48095 9.25254 3.91218 9.24251C5.68722 9.22246 7.4723 9.23249 9.24735 9.23249C9.33761 9.23249 9.42786 9.23249 9.52815 9.23249C7.74307 11.4187 3.77178 11.7496 1.52539 9.24251Z" fill="black"/>
</svg>
