<svg width="18" height="21" viewBox="0 0 18 21" fill="none" xmlns="http://www.w3.org/2000/svg">
<path d="M8.91443 12.9234L11.6441 17.2597L14.1658 15.7806L10.5807 10.0615L8.91443 12.9234Z" fill="black"/>
<path d="M16.4624 14.042L16.4605 12.8568L12.5432 6.68164L11.0899 9.17756L14.8715 15.3676L16.2388 14.5657C16.3729 14.4554 16.454 14.2936 16.4626 14.1191L16.4624 14.042Z" fill="black"/>
<path d="M0.046875 15.159L1.9777 16.2851L8.40306 5.85581L7.31257 5.82668C6.38342 5.8134 5.38252 6.05787 4.92314 6.81684L1.2744 12.5408L0.046875 14.4497V15.159V15.159Z" fill="black"/>
<path d="M12.1109 5.85547L9.23681 5.86603L2.7345 16.7261L5.00726 18.0505L5.62533 16.9895L12.1109 5.85547Z" fill="black"/>
<path d="M17.6733 5.84104C17.6493 5.2327 17.3239 4.6758 16.8141 4.35158L9.66906 0.192877C9.1648 -0.0640998 8.53488 -0.0644298 8.02972 0.192712C7.97001 0.223199 1.08136 4.26672 1.08136 4.26672C0.986014 4.313 0.894179 4.36812 0.807806 4.4307C0.352748 4.76078 0.0753671 5.27375 0.046875 5.83729V14.4499L1.2744 12.541L1.26368 5.8955C1.26511 5.8712 1.26812 5.84727 1.2724 5.82368C1.30016 5.66732 1.38641 5.52784 1.51628 5.43357C1.54868 5.4101 8.55501 1.30544 8.57727 1.29418C8.74194 1.21047 8.95125 1.20948 9.11613 1.29158L16.1687 5.39739C16.3356 5.50494 16.4402 5.68729 16.4495 5.88663V14.1187C16.4409 14.2933 16.3727 14.455 16.2386 14.5653L14.8713 15.3672L14.1658 15.781L11.6442 17.2601L9.08695 18.76C8.94922 18.8104 8.78817 18.8075 8.65158 18.7514L5.62595 16.9901L5.00789 18.051L7.72691 19.6354C7.81683 19.6872 7.89692 19.7331 7.96267 19.7704C8.06445 19.8282 8.13383 19.8668 8.15833 19.8789C8.35157 19.9739 8.62965 20.0292 8.88021 20.0292C9.10994 20.0292 9.33396 19.9865 9.54592 19.9024L16.9736 15.5488C17.4 15.2144 17.6508 14.7103 17.6733 14.1641V5.84104Z" fill="black"/>
</svg>
