<svg width="20" height="20" viewBox="0 0 20 20" fill="none" xmlns="http://www.w3.org/2000/svg">
<g clip-path="url(#clip0_35_159)">
<path d="M9.85708 20C15.301 20 19.7142 15.5228 19.7142 10C19.7142 4.47715 15.301 0 9.85708 0C4.41317 0 0 4.47715 0 10C0 15.5228 4.41317 20 9.85708 20Z" fill="white"/>
<path d="M6.98406 12.6578C6.39713 12.6578 5.91626 12.5177 5.54142 12.2375C5.1715 11.9523 4.98654 11.547 4.98654 11.0216C4.98654 10.9116 4.99888 10.7764 5.02353 10.6163C5.08768 10.2561 5.17891 9.82324 5.29728 9.31788C5.63265 7.94188 6.49826 7.25388 7.89407 7.25388C8.27384 7.25388 8.61415 7.31892 8.91502 7.449C9.2159 7.57408 9.45263 7.76424 9.62525 8.01944C9.79786 8.2696 9.88421 8.56984 9.88421 8.92008C9.88421 9.02516 9.87187 9.15776 9.84719 9.31788C9.77322 9.7632 9.68443 10.196 9.58085 10.6163C9.40823 11.3018 9.10984 11.8147 8.68567 12.155C8.2615 12.4902 7.69432 12.6578 6.98406 12.6578ZM7.08764 11.577C7.36387 11.577 7.59812 11.4945 7.79049 11.3294C7.98779 11.1642 8.12835 10.9116 8.21217 10.5713C8.32561 10.101 8.41196 9.69064 8.47114 9.3404C8.49085 9.23532 8.50071 9.12776 8.50071 9.01764C8.50071 8.56232 8.26643 8.33464 7.7979 8.33464C7.52167 8.33464 7.28494 8.4172 7.08764 8.58232C6.89531 8.74748 6.75719 9.00016 6.67336 9.3404C6.58457 9.67564 6.49578 10.086 6.40703 10.5713C6.38727 10.6714 6.37742 10.7764 6.37742 10.8865C6.37742 11.3469 6.61418 11.577 7.08764 11.577Z" fill="#050813"/>
<path d="M10.2239 12.5828C10.1696 12.5828 10.1277 12.5653 10.0981 12.5302C10.0734 12.4902 10.0661 12.4452 10.0759 12.3952L11.0969 7.51656C11.1067 7.46152 11.1339 7.41648 11.1783 7.38144C11.2226 7.34644 11.2695 7.32892 11.3188 7.32892H13.2868C13.8342 7.32892 14.2732 7.444 14.6036 7.67416C14.939 7.90436 15.1067 8.23708 15.1067 8.6724C15.1067 8.79748 15.0919 8.9276 15.0623 9.06268C14.939 9.63812 14.69 10.0634 14.3151 10.3386C13.9452 10.6138 13.4372 10.7514 12.7911 10.7514H11.7923L11.452 12.3952C11.4421 12.4502 11.415 12.4952 11.3706 12.5302C11.3262 12.5653 11.2793 12.5828 11.2301 12.5828H10.2239ZM12.8429 9.71568C13.05 9.71568 13.23 9.65812 13.3829 9.54304C13.5408 9.42796 13.6443 9.26284 13.6937 9.04768C13.7084 8.9626 13.7159 8.88756 13.7159 8.82252C13.7159 8.6774 13.6739 8.56732 13.5901 8.49228C13.5062 8.4122 13.3632 8.3722 13.161 8.3722H12.2732L11.9921 9.71568H12.8429Z" fill="#050813"/>
</g>
<defs>
<clipPath id="clip0_35_159">
<rect width="19.7142" height="20" fill="white"/>
</clipPath>
</defs>
</svg>
