<svg width="1000" height="1000" viewBox="0 0 1000 1000" fill="none" xmlns="http://www.w3.org/2000/svg">
<path fill-rule="evenodd" clip-rule="evenodd" d="M830.8 820.197C742.952 905.178 623.805 952.92 499.569 952.92C375.334 952.92 256.187 905.178 168.339 820.197C80.4911 735.217 31.1387 619.958 31.1387 499.777C31.1387 379.596 80.4911 264.338 168.339 179.357C256.187 94.3764 375.334 46.6348 499.569 46.6348C623.805 46.6348 742.952 94.3764 830.8 179.357C918.648 264.338 968 379.596 968 499.777C968 619.958 918.648 735.217 830.8 820.197ZM533.691 564.083L566.854 532.003L794.575 752.292L761.412 784.372L533.691 564.083ZM204.618 246.729L237.728 214.649L465.449 434.938L432.34 467.018L204.618 246.729ZM533.531 435.555L760.986 215.009L761.04 215.112L794.202 247.141L566.641 467.533L533.531 435.555ZM205.363 752.961L432.925 532.518L466.088 564.598L238.526 784.99L205.363 752.961Z" fill="black"/>
</svg>
