<?xml version="1.0" encoding="utf-8"?>
<!-- Generator: Adobe Illustrator 26.0.3, SVG Export Plug-In . SVG Version: 6.00 Build 0)  -->
<svg version="1.1" id="Layer_1" xmlns="http://www.w3.org/2000/svg" xmlns:xlink="http://www.w3.org/1999/xlink" x="0px" y="0px"
	 viewBox="0 0 40 40" style="enable-background:new 0 0 40 40;" xml:space="preserve">
<style type="text/css">
	.st0{fill:#231F20;}
	.st1{fill:#FFFFFF;}
	.st2{fill:#FFFFFF;stroke:#231F20;stroke-miterlimit:10;}
</style>
<rect class="st0" width="40" height="40"/>
<path class="st1" d="M20,40c-5.3,0-10.4-2.1-14.1-5.9C2.1,30.4,0,25.3,0,20C0,14.7,2.1,9.6,5.9,5.9C9.6,2.1,14.7,0,20,0
	c5.3,0,10.4,2.1,14.1,5.9C37.9,9.6,40,14.7,40,20c0,5.3-2.1,10.4-5.9,14.1C30.4,37.9,25.3,40,20,40z M20,1.5c-4.9,0-9.6,1.9-13,5.4
	s-5.4,8.1-5.4,13c0,4.9,2,9.6,5.4,13c3.5,3.5,8.2,5.4,13,5.4s9.6-1.9,13-5.4c3.5-3.5,5.4-8.1,5.4-13c0-4.9-2-9.6-5.4-13
	C29.6,3.5,24.9,1.5,20,1.5L20,1.5z"/>
<path class="st1" d="M22.5,36.8c-4.4,0-8.6-1.7-11.7-4.9C7.7,28.8,6,24.6,6,20.2c0-4.4,1.8-8.6,4.9-11.7c3.1-3.1,7.3-4.8,11.7-4.9
	c4.4,0,8.6,1.7,11.7,4.9c3.1,3.1,4.9,7.3,4.9,11.7c0,4.4-1.8,8.6-4.9,11.7C31.1,35.1,26.9,36.8,22.5,36.8z M22.5,4.9
	c-4.1,0-8,1.6-10.9,4.5c-2.9,2.9-4.5,6.8-4.5,10.9c0,4.1,1.6,8,4.5,10.9c2.9,2.9,6.8,4.5,10.9,4.5c4.1,0,8-1.6,10.9-4.5
	c2.9-2.9,4.5-6.8,4.5-10.9c0-4.1-1.6-8-4.5-10.9C30.5,6.5,26.6,4.9,22.5,4.9L22.5,4.9z"/>
<path class="st1" d="M25.1,33.6c-3.5,0-6.8-1.4-9.3-3.8c-2.5-2.5-3.8-5.8-3.9-9.3c0-3.5,1.4-6.8,3.9-9.3c2.5-2.5,5.8-3.8,9.3-3.8
	c3.5,0,6.8,1.4,9.3,3.8c2.5,2.5,3.8,5.8,3.9,9.3c0,3.5-1.4,6.8-3.9,9.3C31.9,32.3,28.5,33.6,25.1,33.6L25.1,33.6z M25.1,8.2
	c-3.3,0-6.4,1.3-8.7,3.6c-2.3,2.3-3.6,5.4-3.6,8.7c0,3.3,1.3,6.4,3.6,8.7c2.3,2.3,5.4,3.6,8.7,3.6c3.3,0,6.4-1.3,8.7-3.6
	c2.3-2.3,3.6-5.4,3.6-8.7c0-3.3-1.3-6.4-3.6-8.7C31.4,9.5,28.3,8.2,25.1,8.2L25.1,8.2z"/>
<path class="st1" d="M27.6,30.5c-2.6,0-5-1-6.9-2.8c-1.8-1.8-2.8-4.3-2.8-6.9c0-2.6,1-5,2.8-6.9c1.8-1.8,4.3-2.8,6.9-2.8
	c2.6,0,5,1,6.9,2.8s2.8,4.3,2.8,6.9c0,2.6-1,5-2.8,6.9C32.6,29.5,30.2,30.5,27.6,30.5L27.6,30.5z M27.6,11.6c-2.4,0-4.8,1-6.5,2.7
	c-1.7,1.7-2.7,4.1-2.7,6.5c0,2.4,1,4.8,2.7,6.5c1.7,1.7,4.1,2.7,6.5,2.7c2.4,0,4.8-1,6.5-2.7c1.7-1.7,2.7-4.1,2.7-6.5
	c0-2.4-1-4.8-2.7-6.5C32.4,12.6,30,11.6,27.6,11.6z"/>
<path class="st2" d="M37.2,10.5h-7.1c-1,0-1.8,0.8-1.8,1.8s0.8,1.8,1.8,1.8h2.8l-7.6,7.6l-1,1l-0.2,0.2l-2.3,2.3l-8.2-8.2
	c-0.3-0.3-0.8-0.5-1.3-0.5c-0.5,0-0.9,0.2-1.3,0.5l-9.5,9.5C1.2,26.8,1,27.2,1,27.7c0,1,0.8,1.8,1.8,1.8c0.5,0,0.9-0.2,1.3-0.5
	l8.2-8.2l8.2,8.2c0.3,0.3,0.8,0.5,1.3,0.5s0.9-0.2,1.3-0.5l3.5-3.5l0,0l8.9-8.9v2.8c0,1,0.8,1.8,1.8,1.8s1.8-0.8,1.8-1.8v-7.1
	C39,11.3,38.2,10.5,37.2,10.5z"/>
</svg>
