<?xml version="1.0" encoding="utf-8"?>
<!-- Generator: Adobe Illustrator 26.0.3, SVG Export Plug-In . SVG Version: 6.00 Build 0)  -->
<svg version="1.1" id="Layer_1" xmlns="http://www.w3.org/2000/svg" xmlns:xlink="http://www.w3.org/1999/xlink" x="0px" y="0px"
	 viewBox="0 0 40 40" style="enable-background:new 0 0 40 40;" xml:space="preserve">
<style type="text/css">
	.st0{fill:#231F20;}
	.st1{fill:#FFFFFF;}
	.st2{fill:#FFFFFF;stroke:#231F20;stroke-miterlimit:10;}
</style>
<rect class="st0" width="40" height="40"/>
<path class="st1" d="M20,40c-5.3,0-10.4-2.1-14.1-5.9C2.1,30.4,0,25.3,0,20S2.1,9.6,5.9,5.9C9.6,2.1,14.7,0,20,0s10.4,2.1,14.1,5.9
	C37.9,9.6,40,14.7,40,20s-2.1,10.4-5.9,14.1C30.4,37.9,25.3,40,20,40z M20,1.5c-4.9,0-9.6,1.9-13,5.4s-5.4,8.1-5.4,13s2,9.6,5.4,13
	c3.5,3.5,8.2,5.4,13,5.4s9.6-1.9,13-5.4c3.5-3.5,5.4-8.1,5.4-13s-2-9.6-5.4-13S24.9,1.5,20,1.5L20,1.5z"/>
<path class="st1" d="M22.5,36.8c-4.4,0-8.6-1.7-11.7-4.9C7.7,28.8,6,24.6,6,20.2s1.8-8.6,4.9-11.7s7.3-4.8,11.7-4.9
	c4.4,0,8.6,1.7,11.7,4.9c3.1,3.1,4.9,7.3,4.9,11.7s-1.8,8.6-4.9,11.7C31.1,35.1,26.9,36.8,22.5,36.8z M22.5,4.9
	c-4.1,0-8,1.6-10.9,4.5s-4.5,6.8-4.5,10.9s1.6,8,4.5,10.9s6.8,4.5,10.9,4.5s8-1.6,10.9-4.5s4.5-6.8,4.5-10.9s-1.6-8-4.5-10.9
	S26.6,4.9,22.5,4.9L22.5,4.9z"/>
<path class="st1" d="M25.1,33.6c-3.5,0-6.8-1.4-9.3-3.8c-2.5-2.5-3.8-5.8-3.9-9.3c0-3.5,1.4-6.8,3.9-9.3s5.8-3.8,9.3-3.8
	s6.8,1.4,9.3,3.8c2.5,2.5,3.8,5.8,3.9,9.3c0,3.5-1.4,6.8-3.9,9.3S28.5,33.6,25.1,33.6L25.1,33.6z M25.1,8.2c-3.3,0-6.4,1.3-8.7,3.6
	s-3.6,5.4-3.6,8.7s1.3,6.4,3.6,8.7s5.4,3.6,8.7,3.6s6.4-1.3,8.7-3.6s3.6-5.4,3.6-8.7s-1.3-6.4-3.6-8.7C31.4,9.5,28.3,8.2,25.1,8.2
	L25.1,8.2z"/>
<path class="st1" d="M27.6,30.5c-2.6,0-5-1-6.9-2.8c-1.8-1.8-2.8-4.3-2.8-6.9s1-5,2.8-6.9c1.8-1.8,4.3-2.8,6.9-2.8s5,1,6.9,2.8
	s2.8,4.3,2.8,6.9s-1,5-2.8,6.9C32.6,29.5,30.2,30.5,27.6,30.5L27.6,30.5z M27.6,11.6c-2.4,0-4.8,1-6.5,2.7c-1.7,1.7-2.7,4.1-2.7,6.5
	s1,4.8,2.7,6.5s4.1,2.7,6.5,2.7s4.8-1,6.5-2.7c1.7-1.7,2.7-4.1,2.7-6.5s-1-4.8-2.7-6.5C32.4,12.6,30,11.6,27.6,11.6z"/>
<path class="st2" d="M17.2,32.9V15h5.7v17.9H17.2z M27.3,32.9v-26H33v26H27.3z M7,32.9V21.5h5.7v11.4H7z"/>
</svg>
